<svg width="216" height="50" viewBox="0 0 216 50" fill="none" xmlns="http://www.w3.org/2000/svg">
<path d="M34.2895 20L28.7015 13.158V20H25.6215V4.644H28.7015V11.53L34.2895 4.644H38.0075L31.6715 12.256L38.1835 20H34.2895ZM46.9634 7.636C48.4154 7.636 49.5887 8.098 50.4834 9.022C51.3781 9.93133 51.8254 11.2073 51.8254 12.85V20H48.7454V13.268C48.7454 12.3 48.5034 11.5593 48.0194 11.046C47.5354 10.518 46.8754 10.254 46.0394 10.254C45.1887 10.254 44.5141 10.518 44.0154 11.046C43.5314 11.5593 43.2894 12.3 43.2894 13.268V20H40.2094V7.812H43.2894V9.33C43.7001 8.802 44.2207 8.39133 44.8514 8.098C45.4967 7.79 46.2007 7.636 46.9634 7.636ZM60.1663 20.198C58.993 20.198 57.937 19.9413 56.9983 19.428C56.0597 18.9 55.319 18.1593 54.7763 17.206C54.2483 16.2527 53.9843 15.1527 53.9843 13.906C53.9843 12.6593 54.2557 11.5593 54.7983 10.606C55.3557 9.65267 56.111 8.91933 57.0643 8.406C58.0177 7.878 59.081 7.614 60.2543 7.614C61.4277 7.614 62.491 7.878 63.4443 8.406C64.3977 8.91933 65.1457 9.65267 65.6883 10.606C66.2457 11.5593 66.5243 12.6593 66.5243 13.906C66.5243 15.1527 66.2383 16.2527 65.6663 17.206C65.109 18.1593 64.3463 18.9 63.3783 19.428C62.425 19.9413 61.3543 20.198 60.1663 20.198ZM60.1663 17.514C60.7237 17.514 61.2443 17.382 61.7283 17.118C62.227 16.8393 62.623 16.4287 62.9163 15.886C63.2097 15.3433 63.3563 14.6833 63.3563 13.906C63.3563 12.7473 63.0483 11.86 62.4323 11.244C61.831 10.6133 61.0903 10.298 60.2103 10.298C59.3303 10.298 58.5897 10.6133 57.9883 11.244C57.4017 11.86 57.1083 12.7473 57.1083 13.906C57.1083 15.0647 57.3943 15.9593 57.9663 16.59C58.553 17.206 59.2863 17.514 60.1663 17.514ZM85.6796 7.812L82.1156 20H78.7936L76.5716 11.486L74.3496 20H71.0056L67.4196 7.812H70.5436L72.6996 17.096L75.0316 7.812H78.2876L80.5756 17.074L82.7316 7.812H85.6796ZM99.5561 4.644L94.3641 14.654V20H91.2841V14.654L86.0701 4.644H89.5461L92.8461 11.662L96.1241 4.644H99.5561ZM106.744 20.198C105.571 20.198 104.515 19.9413 103.576 19.428C102.638 18.9 101.897 18.1593 101.354 17.206C100.826 16.2527 100.562 15.1527 100.562 13.906C100.562 12.6593 100.834 11.5593 101.376 10.606C101.934 9.65267 102.689 8.91933 103.642 8.406C104.596 7.878 105.659 7.614 106.832 7.614C108.006 7.614 109.069 7.878 110.022 8.406C110.976 8.91933 111.724 9.65267 112.266 10.606C112.824 11.5593 113.102 12.6593 113.102 13.906C113.102 15.1527 112.816 16.2527 112.244 17.206C111.687 18.1593 110.924 18.9 109.956 19.428C109.003 19.9413 107.932 20.198 106.744 20.198ZM106.744 17.514C107.302 17.514 107.822 17.382 108.306 17.118C108.805 16.8393 109.201 16.4287 109.494 15.886C109.788 15.3433 109.934 14.6833 109.934 13.906C109.934 12.7473 109.626 11.86 109.01 11.244C108.409 10.6133 107.668 10.298 106.788 10.298C105.908 10.298 105.168 10.6133 104.566 11.244C103.98 11.86 103.686 12.7473 103.686 13.906C103.686 15.0647 103.972 15.9593 104.544 16.59C105.131 17.206 105.864 17.514 106.744 17.514ZM126.868 7.812V20H123.766V18.46C123.37 18.988 122.849 19.406 122.204 19.714C121.573 20.0073 120.884 20.154 120.136 20.154C119.182 20.154 118.339 19.956 117.606 19.56C116.872 19.1493 116.293 18.5553 115.868 17.778C115.457 16.986 115.252 16.0473 115.252 14.962V7.812H118.332V14.522C118.332 15.49 118.574 16.238 119.058 16.766C119.542 17.2793 120.202 17.536 121.038 17.536C121.888 17.536 122.556 17.2793 123.04 16.766C123.524 16.238 123.766 15.49 123.766 14.522V7.812H126.868ZM132.987 9.704C133.383 9.05867 133.896 8.55267 134.527 8.186C135.172 7.81933 135.905 7.636 136.727 7.636V10.87H135.913C134.945 10.87 134.211 11.0973 133.713 11.552C133.229 12.0067 132.987 12.7987 132.987 13.928V20H129.907V7.812H132.987V9.704Z" fill="black"/>
<path d="M149.251 4.644V7.13H145.159V20H142.079V7.13H137.987V4.644H149.251ZM154.578 9.704C154.974 9.05867 155.488 8.55267 156.118 8.186C156.764 7.81933 157.497 7.636 158.318 7.636V10.87H157.504C156.536 10.87 155.803 11.0973 155.304 11.552C154.82 12.0067 154.578 12.7987 154.578 13.928V20H151.498V7.812H154.578V9.704ZM161.955 6.36C161.412 6.36 160.958 6.19133 160.591 5.854C160.239 5.502 160.063 5.06933 160.063 4.556C160.063 4.04267 160.239 3.61733 160.591 3.28C160.958 2.928 161.412 2.752 161.955 2.752C162.498 2.752 162.945 2.928 163.297 3.28C163.664 3.61733 163.847 4.04267 163.847 4.556C163.847 5.06933 163.664 5.502 163.297 5.854C162.945 6.19133 162.498 6.36 161.955 6.36ZM163.473 7.812V20H160.393V7.812H163.473ZM169.596 9.572C169.992 9.01467 170.535 8.55267 171.224 8.186C171.928 7.80467 172.727 7.614 173.622 7.614C174.663 7.614 175.602 7.87067 176.438 8.384C177.289 8.89733 177.956 9.63067 178.44 10.584C178.939 11.5227 179.188 12.6153 179.188 13.862C179.188 15.1087 178.939 16.216 178.44 17.184C177.956 18.1373 177.289 18.878 176.438 19.406C175.602 19.934 174.663 20.198 173.622 20.198C172.727 20.198 171.935 20.0147 171.246 19.648C170.571 19.2813 170.021 18.8193 169.596 18.262V25.808H166.516V7.812H169.596V9.572ZM176.042 13.862C176.042 13.1287 175.888 12.498 175.58 11.97C175.287 11.4273 174.891 11.0167 174.392 10.738C173.908 10.4593 173.38 10.32 172.808 10.32C172.251 10.32 171.723 10.4667 171.224 10.76C170.74 11.0387 170.344 11.4493 170.036 11.992C169.743 12.5347 169.596 13.1727 169.596 13.906C169.596 14.6393 169.743 15.2773 170.036 15.82C170.344 16.3627 170.74 16.7807 171.224 17.074C171.723 17.3527 172.251 17.492 172.808 17.492C173.38 17.492 173.908 17.3453 174.392 17.052C174.891 16.7587 175.287 16.3407 175.58 15.798C175.888 15.2553 176.042 14.61 176.042 13.862ZM186.09 20.198C185.093 20.198 184.198 20.022 183.406 19.67C182.614 19.3033 181.984 18.812 181.514 18.196C181.06 17.58 180.81 16.898 180.766 16.15H183.868C183.927 16.6193 184.154 17.008 184.55 17.316C184.961 17.624 185.467 17.778 186.068 17.778C186.655 17.778 187.11 17.6607 187.432 17.426C187.77 17.1913 187.938 16.8907 187.938 16.524C187.938 16.128 187.733 15.8347 187.322 15.644C186.926 15.4387 186.288 15.2187 185.408 14.984C184.499 14.764 183.751 14.5367 183.164 14.302C182.592 14.0673 182.094 13.708 181.668 13.224C181.258 12.74 181.052 12.0873 181.052 11.266C181.052 10.5913 181.243 9.97533 181.624 9.418C182.02 8.86067 182.578 8.42067 183.296 8.098C184.03 7.77533 184.888 7.614 185.87 7.614C187.322 7.614 188.481 7.98067 189.346 8.714C190.212 9.43267 190.688 10.408 190.776 11.64H187.828C187.784 11.156 187.579 10.7747 187.212 10.496C186.86 10.2027 186.384 10.056 185.782 10.056C185.225 10.056 184.792 10.1587 184.484 10.364C184.191 10.5693 184.044 10.8553 184.044 11.222C184.044 11.6327 184.25 11.948 184.66 12.168C185.071 12.3733 185.709 12.586 186.574 12.806C187.454 13.026 188.18 13.2533 188.752 13.488C189.324 13.7227 189.816 14.0893 190.226 14.588C190.652 15.072 190.872 15.7173 190.886 16.524C190.886 17.228 190.688 17.8587 190.292 18.416C189.911 18.9733 189.354 19.4133 188.62 19.736C187.902 20.044 187.058 20.198 186.09 20.198Z" fill="#5351F4"/>
<path d="M39.2506 34.03L36.9806 38.37V41H36.0706V38.37L33.7906 34.03H34.8006L36.5206 37.56L38.2406 34.03H39.2506ZM42.6004 41.09C42.0871 41.09 41.6204 40.9733 41.2004 40.74C40.7871 40.5067 40.4604 40.1767 40.2204 39.75C39.9871 39.3167 39.8704 38.8167 39.8704 38.25C39.8704 37.69 39.9904 37.1967 40.2304 36.77C40.4771 36.3367 40.8104 36.0067 41.2304 35.78C41.6504 35.5467 42.1204 35.43 42.6404 35.43C43.1604 35.43 43.6304 35.5467 44.0504 35.78C44.4704 36.0067 44.8004 36.3333 45.0404 36.76C45.2871 37.1867 45.4104 37.6833 45.4104 38.25C45.4104 38.8167 45.2838 39.3167 45.0304 39.75C44.7838 40.1767 44.4471 40.5067 44.0204 40.74C43.5938 40.9733 43.1204 41.09 42.6004 41.09ZM42.6004 40.29C42.9271 40.29 43.2338 40.2133 43.5204 40.06C43.8071 39.9067 44.0371 39.6767 44.2104 39.37C44.3904 39.0633 44.4804 38.69 44.4804 38.25C44.4804 37.81 44.3938 37.4367 44.2204 37.13C44.0471 36.8233 43.8204 36.5967 43.5404 36.45C43.2604 36.2967 42.9571 36.22 42.6304 36.22C42.2971 36.22 41.9904 36.2967 41.7104 36.45C41.4371 36.5967 41.2171 36.8233 41.0504 37.13C40.8838 37.4367 40.8004 37.81 40.8004 38.25C40.8004 38.6967 40.8804 39.0733 41.0404 39.38C41.2071 39.6867 41.4271 39.9167 41.7004 40.07C41.9738 40.2167 42.2738 40.29 42.6004 40.29ZM51.4669 35.52V41H50.5569V40.19C50.3836 40.47 50.1402 40.69 49.8269 40.85C49.5202 41.0033 49.1802 41.08 48.8069 41.08C48.3802 41.08 47.9969 40.9933 47.6569 40.82C47.3169 40.64 47.0469 40.3733 46.8469 40.02C46.6536 39.6667 46.5569 39.2367 46.5569 38.73V35.52H47.4569V38.61C47.4569 39.15 47.5936 39.5667 47.8669 39.86C48.1402 40.1467 48.5136 40.29 48.9869 40.29C49.4736 40.29 49.8569 40.14 50.1369 39.84C50.4169 39.54 50.5569 39.1033 50.5569 38.53V35.52H51.4669ZM53.9134 36.41C54.0734 36.0967 54.3001 35.8533 54.5934 35.68C54.8934 35.5067 55.2567 35.42 55.6834 35.42V36.36H55.4434C54.4234 36.36 53.9134 36.9133 53.9134 38.02V41H53.0034V35.52H53.9134V36.41ZM64.0599 36.07C64.0599 36.65 63.8599 37.1333 63.4599 37.52C63.0665 37.9 62.4632 38.09 61.6499 38.09H60.3099V41H59.3999V34.03H61.6499C62.4365 34.03 63.0332 34.22 63.4399 34.6C63.8532 34.98 64.0599 35.47 64.0599 36.07ZM61.6499 37.34C62.1565 37.34 62.5299 37.23 62.7699 37.01C63.0099 36.79 63.1299 36.4767 63.1299 36.07C63.1299 35.21 62.6365 34.78 61.6499 34.78H60.3099V37.34H61.6499ZM70.1909 38.05C70.1909 38.2233 70.1809 38.4067 70.1609 38.6H65.7809C65.8142 39.14 65.9976 39.5633 66.3309 39.87C66.6709 40.17 67.0809 40.32 67.5609 40.32C67.9542 40.32 68.2809 40.23 68.5409 40.05C68.8076 39.8633 68.9942 39.6167 69.1009 39.31H70.0809C69.9342 39.8367 69.6409 40.2667 69.2009 40.6C68.7609 40.9267 68.2142 41.09 67.5609 41.09C67.0409 41.09 66.5742 40.9733 66.1609 40.74C65.7542 40.5067 65.4342 40.1767 65.2009 39.75C64.9676 39.3167 64.8509 38.8167 64.8509 38.25C64.8509 37.6833 64.9642 37.1867 65.1909 36.76C65.4176 36.3333 65.7342 36.0067 66.1409 35.78C66.5542 35.5467 67.0276 35.43 67.5609 35.43C68.0809 35.43 68.5409 35.5433 68.9409 35.77C69.3409 35.9967 69.6476 36.31 69.8609 36.71C70.0809 37.1033 70.1909 37.55 70.1909 38.05ZM69.2509 37.86C69.2509 37.5133 69.1742 37.2167 69.0209 36.97C68.8676 36.7167 68.6576 36.5267 68.3909 36.4C68.1309 36.2667 67.8409 36.2 67.5209 36.2C67.0609 36.2 66.6676 36.3467 66.3409 36.64C66.0209 36.9333 65.8376 37.34 65.7909 37.86H69.2509ZM72.3021 36.41C72.4621 36.0967 72.6887 35.8533 72.9821 35.68C73.2821 35.5067 73.6454 35.42 74.0721 35.42V36.36H73.8321C72.8121 36.36 72.3021 36.9133 72.3021 38.02V41H71.3921V35.52H72.3021V36.41ZM77.0625 41.09C76.6425 41.09 76.2659 41.02 75.9325 40.88C75.5992 40.7333 75.3359 40.5333 75.1425 40.28C74.9492 40.02 74.8425 39.7233 74.8225 39.39H75.7625C75.7892 39.6633 75.9159 39.8867 76.1425 40.06C76.3759 40.2333 76.6792 40.32 77.0525 40.32C77.3992 40.32 77.6725 40.2433 77.8725 40.09C78.0725 39.9367 78.1725 39.7433 78.1725 39.51C78.1725 39.27 78.0659 39.0933 77.8525 38.98C77.6392 38.86 77.3092 38.7433 76.8625 38.63C76.4559 38.5233 76.1225 38.4167 75.8625 38.31C75.6092 38.1967 75.3892 38.0333 75.2025 37.82C75.0225 37.6 74.9325 37.3133 74.9325 36.96C74.9325 36.68 75.0159 36.4233 75.1825 36.19C75.3492 35.9567 75.5859 35.7733 75.8925 35.64C76.1992 35.5 76.5492 35.43 76.9425 35.43C77.5492 35.43 78.0392 35.5833 78.4125 35.89C78.7859 36.1967 78.9859 36.6167 79.0125 37.15H78.1025C78.0825 36.8633 77.9659 36.6333 77.7525 36.46C77.5459 36.2867 77.2659 36.2 76.9125 36.2C76.5859 36.2 76.3259 36.27 76.1325 36.41C75.9392 36.55 75.8425 36.7333 75.8425 36.96C75.8425 37.14 75.8992 37.29 76.0125 37.41C76.1325 37.5233 76.2792 37.6167 76.4525 37.69C76.6325 37.7567 76.8792 37.8333 77.1925 37.92C77.5859 38.0267 77.9059 38.1333 78.1525 38.24C78.3992 38.34 78.6092 38.4933 78.7825 38.7C78.9625 38.9067 79.0559 39.1767 79.0625 39.51C79.0625 39.81 78.9792 40.08 78.8125 40.32C78.6459 40.56 78.4092 40.75 78.1025 40.89C77.8025 41.0233 77.4559 41.09 77.0625 41.09ZM82.7371 41.09C82.2238 41.09 81.7571 40.9733 81.3371 40.74C80.9238 40.5067 80.5971 40.1767 80.3571 39.75C80.1238 39.3167 80.0071 38.8167 80.0071 38.25C80.0071 37.69 80.1271 37.1967 80.3671 36.77C80.6138 36.3367 80.9471 36.0067 81.3671 35.78C81.7871 35.5467 82.2571 35.43 82.7771 35.43C83.2971 35.43 83.7671 35.5467 84.1871 35.78C84.6071 36.0067 84.9371 36.3333 85.1771 36.76C85.4238 37.1867 85.5471 37.6833 85.5471 38.25C85.5471 38.8167 85.4205 39.3167 85.1671 39.75C84.9205 40.1767 84.5838 40.5067 84.1571 40.74C83.7305 40.9733 83.2571 41.09 82.7371 41.09ZM82.7371 40.29C83.0638 40.29 83.3705 40.2133 83.6571 40.06C83.9438 39.9067 84.1738 39.6767 84.3471 39.37C84.5271 39.0633 84.6171 38.69 84.6171 38.25C84.6171 37.81 84.5305 37.4367 84.3571 37.13C84.1838 36.8233 83.9571 36.5967 83.6771 36.45C83.3971 36.2967 83.0938 36.22 82.7671 36.22C82.4338 36.22 82.1271 36.2967 81.8471 36.45C81.5738 36.5967 81.3538 36.8233 81.1871 37.13C81.0205 37.4367 80.9371 37.81 80.9371 38.25C80.9371 38.6967 81.0171 39.0733 81.1771 39.38C81.3438 39.6867 81.5638 39.9167 81.8371 40.07C82.1105 40.2167 82.4105 40.29 82.7371 40.29ZM89.4136 35.42C90.0803 35.42 90.6203 35.6233 91.0336 36.03C91.447 36.43 91.6536 37.01 91.6536 37.77V41H90.7536V37.9C90.7536 37.3533 90.617 36.9367 90.3436 36.65C90.0703 36.3567 89.697 36.21 89.2236 36.21C88.7436 36.21 88.3603 36.36 88.0736 36.66C87.7936 36.96 87.6536 37.3967 87.6536 37.97V41H86.7436V35.52H87.6536V36.3C87.8336 36.02 88.077 35.8033 88.3836 35.65C88.697 35.4967 89.0403 35.42 89.4136 35.42ZM92.8001 38.24C92.8001 37.68 92.9135 37.19 93.1401 36.77C93.3668 36.3433 93.6768 36.0133 94.0701 35.78C94.4701 35.5467 94.9135 35.43 95.4001 35.43C95.8801 35.43 96.2968 35.5333 96.6501 35.74C97.0035 35.9467 97.2668 36.2067 97.4401 36.52V35.52H98.3601V41H97.4401V39.98C97.2601 40.3 96.9901 40.5667 96.6301 40.78C96.2768 40.9867 95.8635 41.09 95.3901 41.09C94.9035 41.09 94.4635 40.97 94.0701 40.73C93.6768 40.49 93.3668 40.1533 93.1401 39.72C92.9135 39.2867 92.8001 38.7933 92.8001 38.24ZM97.4401 38.25C97.4401 37.8367 97.3568 37.4767 97.1901 37.17C97.0235 36.8633 96.7968 36.63 96.5101 36.47C96.2301 36.3033 95.9201 36.22 95.5801 36.22C95.2401 36.22 94.9301 36.3 94.6501 36.46C94.3701 36.62 94.1468 36.8533 93.9801 37.16C93.8135 37.4667 93.7301 37.8267 93.7301 38.24C93.7301 38.66 93.8135 39.0267 93.9801 39.34C94.1468 39.6467 94.3701 39.8833 94.6501 40.05C94.9301 40.21 95.2401 40.29 95.5801 40.29C95.9201 40.29 96.2301 40.21 96.5101 40.05C96.7968 39.8833 97.0235 39.6467 97.1901 39.34C97.3568 39.0267 97.4401 38.6633 97.4401 38.25ZM100.808 33.6V41H99.8979V33.6H100.808ZM109.315 34.03V34.77H107.415V41H106.505V34.77H104.595V34.03H109.315ZM111.345 36.41C111.505 36.0967 111.732 35.8533 112.025 35.68C112.325 35.5067 112.688 35.42 113.115 35.42V36.36H112.875C111.855 36.36 111.345 36.9133 111.345 38.02V41H110.435V35.52H111.345V36.41ZM113.826 38.24C113.826 37.68 113.939 37.19 114.166 36.77C114.392 36.3433 114.702 36.0133 115.096 35.78C115.496 35.5467 115.939 35.43 116.426 35.43C116.906 35.43 117.322 35.5333 117.676 35.74C118.029 35.9467 118.292 36.2067 118.466 36.52V35.52H119.386V41H118.466V39.98C118.286 40.3 118.016 40.5667 117.656 40.78C117.302 40.9867 116.889 41.09 116.416 41.09C115.929 41.09 115.489 40.97 115.096 40.73C114.702 40.49 114.392 40.1533 114.166 39.72C113.939 39.2867 113.826 38.7933 113.826 38.24ZM118.466 38.25C118.466 37.8367 118.382 37.4767 118.216 37.17C118.049 36.8633 117.822 36.63 117.536 36.47C117.256 36.3033 116.946 36.22 116.606 36.22C116.266 36.22 115.956 36.3 115.676 36.46C115.396 36.62 115.172 36.8533 115.006 37.16C114.839 37.4667 114.756 37.8267 114.756 38.24C114.756 38.66 114.839 39.0267 115.006 39.34C115.172 39.6467 115.396 39.8833 115.676 40.05C115.956 40.21 116.266 40.29 116.606 40.29C116.946 40.29 117.256 40.21 117.536 40.05C117.822 39.8833 118.049 39.6467 118.216 39.34C118.382 39.0267 118.466 38.6633 118.466 38.25ZM122.963 40.16L124.663 35.52H125.633L123.483 41H122.423L120.273 35.52H121.253L122.963 40.16ZM131.529 38.05C131.529 38.2233 131.519 38.4067 131.499 38.6H127.119C127.152 39.14 127.335 39.5633 127.669 39.87C128.009 40.17 128.419 40.32 128.899 40.32C129.292 40.32 129.619 40.23 129.879 40.05C130.145 39.8633 130.332 39.6167 130.439 39.31H131.419C131.272 39.8367 130.979 40.2667 130.539 40.6C130.099 40.9267 129.552 41.09 128.899 41.09C128.379 41.09 127.912 40.9733 127.499 40.74C127.092 40.5067 126.772 40.1767 126.539 39.75C126.305 39.3167 126.189 38.8167 126.189 38.25C126.189 37.6833 126.302 37.1867 126.529 36.76C126.755 36.3333 127.072 36.0067 127.479 35.78C127.892 35.5467 128.365 35.43 128.899 35.43C129.419 35.43 129.879 35.5433 130.279 35.77C130.679 35.9967 130.985 36.31 131.199 36.71C131.419 37.1033 131.529 37.55 131.529 38.05ZM130.589 37.86C130.589 37.5133 130.512 37.2167 130.359 36.97C130.205 36.7167 129.995 36.5267 129.729 36.4C129.469 36.2667 129.179 36.2 128.859 36.2C128.399 36.2 128.005 36.3467 127.679 36.64C127.359 36.9333 127.175 37.34 127.129 37.86H130.589ZM133.64 33.6V41H132.73V33.6H133.64ZM141.977 39.45H138.937L138.377 41H137.417L139.937 34.07H140.987L143.497 41H142.537L141.977 39.45ZM141.717 38.71L140.457 35.19L139.197 38.71H141.717ZM146.535 41.09C146.115 41.09 145.739 41.02 145.405 40.88C145.072 40.7333 144.809 40.5333 144.615 40.28C144.422 40.02 144.315 39.7233 144.295 39.39H145.235C145.262 39.6633 145.389 39.8867 145.615 40.06C145.849 40.2333 146.152 40.32 146.525 40.32C146.872 40.32 147.145 40.2433 147.345 40.09C147.545 39.9367 147.645 39.7433 147.645 39.51C147.645 39.27 147.539 39.0933 147.325 38.98C147.112 38.86 146.782 38.7433 146.335 38.63C145.929 38.5233 145.595 38.4167 145.335 38.31C145.082 38.1967 144.862 38.0333 144.675 37.82C144.495 37.6 144.405 37.3133 144.405 36.96C144.405 36.68 144.489 36.4233 144.655 36.19C144.822 35.9567 145.059 35.7733 145.365 35.64C145.672 35.5 146.022 35.43 146.415 35.43C147.022 35.43 147.512 35.5833 147.885 35.89C148.259 36.1967 148.459 36.6167 148.485 37.15H147.575C147.555 36.8633 147.439 36.6333 147.225 36.46C147.019 36.2867 146.739 36.2 146.385 36.2C146.059 36.2 145.799 36.27 145.605 36.41C145.412 36.55 145.315 36.7333 145.315 36.96C145.315 37.14 145.372 37.29 145.485 37.41C145.605 37.5233 145.752 37.6167 145.925 37.69C146.105 37.7567 146.352 37.8333 146.665 37.92C147.059 38.0267 147.379 38.1333 147.625 38.24C147.872 38.34 148.082 38.4933 148.255 38.7C148.435 38.9067 148.529 39.1767 148.535 39.51C148.535 39.81 148.452 40.08 148.285 40.32C148.119 40.56 147.882 40.75 147.575 40.89C147.275 41.0233 146.929 41.09 146.535 41.09ZM151.76 41.09C151.34 41.09 150.963 41.02 150.63 40.88C150.296 40.7333 150.033 40.5333 149.84 40.28C149.646 40.02 149.54 39.7233 149.52 39.39H150.46C150.486 39.6633 150.613 39.8867 150.84 40.06C151.073 40.2333 151.376 40.32 151.75 40.32C152.096 40.32 152.37 40.2433 152.57 40.09C152.77 39.9367 152.87 39.7433 152.87 39.51C152.87 39.27 152.763 39.0933 152.55 38.98C152.336 38.86 152.006 38.7433 151.56 38.63C151.153 38.5233 150.82 38.4167 150.56 38.31C150.306 38.1967 150.086 38.0333 149.9 37.82C149.72 37.6 149.63 37.3133 149.63 36.96C149.63 36.68 149.713 36.4233 149.88 36.19C150.046 35.9567 150.283 35.7733 150.59 35.64C150.896 35.5 151.246 35.43 151.64 35.43C152.246 35.43 152.736 35.5833 153.11 35.89C153.483 36.1967 153.683 36.6167 153.71 37.15H152.8C152.78 36.8633 152.663 36.6333 152.45 36.46C152.243 36.2867 151.963 36.2 151.61 36.2C151.283 36.2 151.023 36.27 150.83 36.41C150.636 36.55 150.54 36.7333 150.54 36.96C150.54 37.14 150.596 37.29 150.71 37.41C150.83 37.5233 150.976 37.6167 151.15 37.69C151.33 37.7567 151.576 37.8333 151.89 37.92C152.283 38.0267 152.603 38.1333 152.85 38.24C153.096 38.34 153.306 38.4933 153.48 38.7C153.66 38.9067 153.753 39.1767 153.76 39.51C153.76 39.81 153.676 40.08 153.51 40.32C153.343 40.56 153.106 40.75 152.8 40.89C152.5 41.0233 152.153 41.09 151.76 41.09ZM155.514 34.63C155.341 34.63 155.194 34.57 155.074 34.45C154.954 34.33 154.894 34.1833 154.894 34.01C154.894 33.8367 154.954 33.69 155.074 33.57C155.194 33.45 155.341 33.39 155.514 33.39C155.681 33.39 155.821 33.45 155.934 33.57C156.054 33.69 156.114 33.8367 156.114 34.01C156.114 34.1833 156.054 34.33 155.934 34.45C155.821 34.57 155.681 34.63 155.514 34.63ZM155.954 35.52V41H155.044V35.52H155.954ZM159.445 41.09C159.025 41.09 158.649 41.02 158.315 40.88C157.982 40.7333 157.719 40.5333 157.525 40.28C157.332 40.02 157.225 39.7233 157.205 39.39H158.145C158.172 39.6633 158.299 39.8867 158.525 40.06C158.759 40.2333 159.062 40.32 159.435 40.32C159.782 40.32 160.055 40.2433 160.255 40.09C160.455 39.9367 160.555 39.7433 160.555 39.51C160.555 39.27 160.449 39.0933 160.235 38.98C160.022 38.86 159.692 38.7433 159.245 38.63C158.839 38.5233 158.505 38.4167 158.245 38.31C157.992 38.1967 157.772 38.0333 157.585 37.82C157.405 37.6 157.315 37.3133 157.315 36.96C157.315 36.68 157.399 36.4233 157.565 36.19C157.732 35.9567 157.969 35.7733 158.275 35.64C158.582 35.5 158.932 35.43 159.325 35.43C159.932 35.43 160.422 35.5833 160.795 35.89C161.169 36.1967 161.369 36.6167 161.395 37.15H160.485C160.465 36.8633 160.349 36.6333 160.135 36.46C159.929 36.2867 159.649 36.2 159.295 36.2C158.969 36.2 158.709 36.27 158.515 36.41C158.322 36.55 158.225 36.7333 158.225 36.96C158.225 37.14 158.282 37.29 158.395 37.41C158.515 37.5233 158.662 37.6167 158.835 37.69C159.015 37.7567 159.262 37.8333 159.575 37.92C159.969 38.0267 160.289 38.1333 160.535 38.24C160.782 38.34 160.992 38.4933 161.165 38.7C161.345 38.9067 161.439 39.1767 161.445 39.51C161.445 39.81 161.362 40.08 161.195 40.32C161.029 40.56 160.792 40.75 160.485 40.89C160.185 41.0233 159.839 41.09 159.445 41.09ZM163.84 36.27V39.5C163.84 39.7667 163.897 39.9567 164.01 40.07C164.123 40.1767 164.32 40.23 164.6 40.23H165.27V41H164.45C163.943 41 163.563 40.8833 163.31 40.65C163.057 40.4167 162.93 40.0333 162.93 39.5V36.27H162.22V35.52H162.93V34.14H163.84V35.52H165.27V36.27H163.84ZM166.033 38.24C166.033 37.68 166.146 37.19 166.373 36.77C166.599 36.3433 166.909 36.0133 167.303 35.78C167.703 35.5467 168.146 35.43 168.633 35.43C169.113 35.43 169.529 35.5333 169.883 35.74C170.236 35.9467 170.499 36.2067 170.673 36.52V35.52H171.593V41H170.673V39.98C170.493 40.3 170.223 40.5667 169.863 40.78C169.509 40.9867 169.096 41.09 168.623 41.09C168.136 41.09 167.696 40.97 167.303 40.73C166.909 40.49 166.599 40.1533 166.373 39.72C166.146 39.2867 166.033 38.7933 166.033 38.24ZM170.673 38.25C170.673 37.8367 170.589 37.4767 170.423 37.17C170.256 36.8633 170.029 36.63 169.743 36.47C169.463 36.3033 169.153 36.22 168.813 36.22C168.473 36.22 168.163 36.3 167.883 36.46C167.603 36.62 167.379 36.8533 167.213 37.16C167.046 37.4667 166.963 37.8267 166.963 38.24C166.963 38.66 167.046 39.0267 167.213 39.34C167.379 39.6467 167.603 39.8833 167.883 40.05C168.163 40.21 168.473 40.29 168.813 40.29C169.153 40.29 169.463 40.21 169.743 40.05C170.029 39.8833 170.256 39.6467 170.423 39.34C170.589 39.0267 170.673 38.6633 170.673 38.25ZM175.8 35.42C176.467 35.42 177.007 35.6233 177.42 36.03C177.834 36.43 178.04 37.01 178.04 37.77V41H177.14V37.9C177.14 37.3533 177.004 36.9367 176.73 36.65C176.457 36.3567 176.084 36.21 175.61 36.21C175.13 36.21 174.747 36.36 174.46 36.66C174.18 36.96 174.04 37.3967 174.04 37.97V41H173.13V35.52H174.04V36.3C174.22 36.02 174.464 35.8033 174.77 35.65C175.084 35.4967 175.427 35.42 175.8 35.42ZM180.637 36.27V39.5C180.637 39.7667 180.694 39.9567 180.807 40.07C180.92 40.1767 181.117 40.23 181.397 40.23H182.067V41H181.247C180.74 41 180.36 40.8833 180.107 40.65C179.854 40.4167 179.727 40.0333 179.727 39.5V36.27H179.017V35.52H179.727V34.14H180.637V35.52H182.067V36.27H180.637Z" fill="#061D3C"/>
</svg>
