<svg width="23" height="39" viewBox="0 0 23 39" fill="none" xmlns="http://www.w3.org/2000/svg">
<ellipse cx="11.5" cy="35.7998" rx="5.5" ry="2.5" fill="#5351F4"/>
<path d="M11.6108 36.8942L0.732121 15.2534L21.4322 14.867L16.5215 25.8806L14.0661 31.3874L12.8385 34.1408L12.2246 35.5175C12.2246 35.5175 12.0376 35.9371 11.9177 36.2059C11.7979 36.4747 11.6108 36.8942 11.6108 36.8942Z" fill="#5351F4"/>
<circle cx="11" cy="11.2998" r="11" fill="#5351F4"/>
<g clip-path="url(#clip0_4824_9734)">
<path d="M8.10356 19.1556L8.3003 19.6012L7.73201 20.546L8.28602 21.8009L10.0863 19.9515L10.3372 20.5197L8.82916 23.0312L9.39699 24.3174C9.44765 24.4321 9.4501 24.5485 9.40436 24.6666C9.35861 24.7846 9.27837 24.869 9.16363 24.9197C9.04888 24.9703 8.93248 24.9728 8.81442 24.927C8.69636 24.8813 8.612 24.801 8.56134 24.6863L7.99352 23.4001L5.12189 22.8228L4.87091 22.2543L7.4505 22.1701L6.89662 20.9155L5.82101 20.6961L5.62415 20.2502L7.02842 20.0831L8.10356 19.1556Z" fill="white"/>
</g>
<path d="M19.7546 13.905C20.2065 12.5332 20.3089 11.0699 20.0528 9.64446C19.7966 8.21905 19.1898 6.87561 18.2861 5.73313C17.3825 4.59066 16.2098 3.68443 14.872 3.0947C13.5342 2.50497 12.0726 2.24995 10.6166 2.35223C9.16067 2.45451 7.75528 2.91093 6.52495 3.68107C5.29463 4.45121 4.27736 5.51129 3.56324 6.76741C2.84912 8.02353 2.4602 9.43691 2.43093 10.8824C2.40165 12.3278 2.73293 13.7608 3.39542 15.0542L5.89269 13.8138C5.43924 12.9285 5.21249 11.9477 5.23252 10.9583C5.25256 9.96897 5.51876 9.00156 6.00755 8.14179C6.49634 7.28202 7.19263 6.55643 8.03474 6.0293C8.87685 5.50217 9.83879 5.18977 10.8354 5.11976C11.8319 5.04975 12.8323 5.2243 13.748 5.62795C14.6637 6.0316 15.4663 6.65189 16.0848 7.43387C16.7034 8.21585 17.1187 9.13538 17.294 10.111C17.4694 11.0867 17.3993 12.0883 17.09 13.0272L19.7546 13.905Z" fill="white"/>
<rect x="2.8353" y="13.7275" width="2.80689" height="6.77469" transform="rotate(-21.1138 2.8353 13.7275)" fill="white"/>
<defs>
<clipPath id="clip0_4824_9734">
<rect width="7.60159" height="7.60159" fill="white" transform="translate(13.0244 24.2539) rotate(156.18)"/>
</clipPath>
</defs>
</svg>
